<?xml version="1.0" standalone="no"?>
<!DOCTYPE svg PUBLIC "-//W3C//DTD SVG 20010904//EN"
 "http://www.w3.org/TR/2001/REC-SVG-20010904/DTD/svg10.dtd">
<svg version="1.0" xmlns="http://www.w3.org/2000/svg"
 width="225.000000pt" height="225.000000pt" viewBox="0 0 225.000000 225.000000"
 preserveAspectRatio="xMidYMid meet">

<g transform="translate(0.000000,225.000000) scale(0.100000,-0.100000)"
fill="#000000" stroke="none">
<path d="M598 1941 l-33 -29 0 -787 0 -787 33 -29 32 -29 495 0 495 0 32 29
c45 40 45 92 0 132 l-32 29 -435 0 -435 0 0 280 0 280 335 0 c364 0 379 2 403
55 16 34 15 50 -2 84 -26 49 -41 51 -401 51 l-335 0 0 280 0 280 435 0 435 0
32 29 c45 40 45 92 0 132 l-32 29 -495 0 -495 0 -32 -29z"/>
</g>
</svg>
