<?xml version="1.0" standalone="no"?>
<!DOCTYPE svg PUBLIC "-//W3C//DTD SVG 20010904//EN"
 "http://www.w3.org/TR/2001/REC-SVG-20010904/DTD/svg10.dtd">
<svg version="1.0" xmlns="http://www.w3.org/2000/svg"
 width="980.000000pt" height="980.000000pt" viewBox="0 0 980.000000 980.000000"
 preserveAspectRatio="xMidYMid meet">

<g transform="translate(0.000000,980.000000) scale(0.100000,-0.100000)"
fill="black" stroke="none">
<path d="M4560 9789 c-1035 -75 -1998 -463 -2800 -1128 -150 -123 -501 -475
-622 -621 -534 -647 -880 -1372 -1042 -2180 -259 -1291 18 -2648 761 -3727
277 -403 628 -778 1018 -1087 440 -348 980 -636 1525 -811 1440 -463 3025
-232 4267 622 407 279 799 649 1099 1034 735 946 1100 2126 1024 3314 -70
1094 -491 2109 -1216 2935 -112 128 -386 398 -509 501 -763 642 -1665 1026
-2665 1134 -174 19 -664 27 -840 14z m695 -789 c850 -77 1629 -398 2280 -939
130 -108 353 -327 469 -461 481 -552 810 -1230 940 -1940 54 -297 61 -381 61
-760 0 -379 -7 -463 -61 -760 -81 -438 -243 -881 -472 -1285 -78 -139 -246
-385 -358 -525 -138 -173 -471 -506 -641 -642 -305 -242 -636 -438 -989 -587
-98 -41 -346 -131 -360 -131 -2 0 -4 195 -4 433 0 459 -6 537 -51 683 -49 159
-160 326 -279 420 l-62 48 139 18 c472 59 919 203 1205 390 310 202 557 514
688 868 47 125 106 368 129 525 32 218 46 507 32 675 -23 278 -73 467 -186
695 -68 137 -140 246 -261 393 l-27 33 26 87 c54 178 62 233 62 452 0 240 -17
343 -91 570 l-45 137 -46 7 c-132 18 -243 0 -456 -73 -204 -71 -414 -176 -657
-328 l-135 -85 -155 36 c-384 88 -591 111 -1030 111 -441 0 -636 -22 -1021
-111 l-156 -37 -109 70 c-287 184 -593 331 -794 382 -109 28 -316 48 -361 35
-33 -9 -35 -14 -76 -134 -23 -69 -54 -183 -69 -255 -25 -116 -28 -150 -28
-325 0 -211 15 -311 69 -469 l25 -74 -39 -43 c-107 -115 -228 -306 -296 -464
-47 -111 -98 -281 -120 -400 -23 -124 -32 -505 -16 -678 32 -354 117 -684 237
-923 144 -288 408 -567 687 -727 289 -165 720 -294 1144 -343 l112 -13 -85
-80 c-136 -127 -212 -257 -259 -441 -34 -133 -45 -306 -45 -732 0 -189 -4
-343 -9 -343 -4 0 -73 22 -152 49 -1284 438 -2290 1518 -2634 2826 -94 355
-125 586 -132 976 -10 533 45 911 201 1384 207 627 550 1173 1032 1645 322
315 643 544 1040 743 452 226 947 367 1459 416 129 12 600 13 730 1z"/>
</g>
</svg>
