<?xml version="1.0" standalone="no"?>
<!DOCTYPE svg PUBLIC "-//W3C//DTD SVG 20010904//EN"
 "http://www.w3.org/TR/2001/REC-SVG-20010904/DTD/svg10.dtd">
<svg version="1.0" xmlns="http://www.w3.org/2000/svg"
 width="5831.000000pt" height="5831.000000pt" viewBox="0 0 5831.000000 5831.000000"
 preserveAspectRatio="xMidYMid meet">

<g transform="translate(0.000000,5831.000000) scale(0.100000,-0.100000)"
fill="white" stroke="none">
<path d="M27465 58280 c-121 -4 -238 -10 -260 -14 -109 -19 -161 -30 -170 -36
-59 -41 -233 -57 -715 -65 -386 -6 -462 -11 -555 -32 -76 -17 -95 -25 -119
-48 -26 -26 -201 -45 -523 -55 -343 -10 -409 -20 -477 -73 -48 -37 -85 -43
-341 -52 -99 -3 -202 -11 -229 -16 -45 -9 -115 -36 -126 -49 -11 -12 -56 -37
-80 -43 -14 -4 -126 -12 -250 -17 -281 -13 -330 -21 -378 -68 -45 -43 -75 -49
-282 -62 -190 -11 -232 -22 -290 -75 -36 -34 -88 -44 -272 -55 -176 -10 -223
-22 -285 -74 -44 -37 -67 -42 -238 -51 -168 -8 -210 -21 -268 -79 -20 -20 -44
-36 -54 -36 -70 -2 -265 -21 -295 -30 -21 -6 -54 -26 -74 -45 -46 -43 -77 -52
-234 -64 -140 -10 -197 -28 -234 -72 -35 -41 -62 -49 -205 -58 -70 -4 -138
-14 -151 -20 -14 -7 -41 -30 -60 -52 l-35 -39 -130 -14 c-155 -17 -173 -23
-211 -71 -32 -40 -74 -53 -176 -54 -90 -2 -149 -22 -193 -67 -48 -50 -56 -53
-188 -63 -117 -10 -169 -29 -194 -72 -21 -35 -61 -48 -178 -58 -93 -9 -115
-19 -170 -76 -39 -41 -42 -42 -121 -49 -111 -9 -142 -21 -189 -72 -40 -44 -40
-44 -125 -50 -102 -8 -161 -31 -209 -83 -32 -34 -43 -40 -96 -46 -140 -15
-168 -25 -210 -70 -44 -46 -90 -65 -163 -65 -55 0 -105 -23 -140 -65 -35 -42
-55 -51 -130 -58 -76 -8 -135 -36 -159 -77 -18 -32 -62 -50 -119 -50 -72 0
-132 -34 -169 -94 -7 -12 -42 -23 -110 -35 -108 -19 -137 -32 -157 -69 -17
-33 -54 -49 -129 -57 -84 -9 -122 -28 -153 -75 -22 -34 -32 -40 -83 -49 -103
-19 -136 -34 -161 -71 -30 -44 -31 -45 -127 -64 -63 -13 -85 -22 -106 -45 -15
-16 -28 -34 -30 -40 -5 -15 -112 -51 -152 -51 -24 0 -41 -11 -78 -51 -43 -47
-53 -52 -125 -69 -104 -23 -108 -26 -130 -66 -19 -36 -22 -37 -139 -65 -64
-15 -91 -32 -110 -69 -11 -21 -27 -32 -58 -40 -123 -33 -126 -35 -180 -103
-17 -22 -34 -30 -79 -36 -60 -8 -122 -45 -133 -80 -7 -24 -63 -51 -107 -51
-45 -1 -76 -20 -107 -66 -24 -34 -36 -41 -106 -61 -59 -17 -86 -30 -102 -50
-45 -57 -53 -62 -90 -68 -58 -9 -136 -52 -158 -88 -20 -31 -30 -36 -123 -53
-24 -5 -48 -27 -89 -82 -13 -17 -36 -32 -54 -36 -68 -13 -118 -43 -133 -80
-12 -29 -21 -36 -53 -41 -21 -3 -47 -8 -59 -10 -22 -5 -74 -48 -74 -63 0 -5
-10 -18 -22 -29 -21 -19 -43 -28 -123 -51 -18 -5 -41 -26 -60 -53 -25 -34 -40
-46 -71 -52 -62 -14 -103 -38 -126 -75 -21 -34 -69 -62 -107 -62 -37 0 -71
-23 -96 -66 -19 -32 -33 -44 -57 -49 -46 -10 -118 -53 -118 -70 0 -19 -77 -75
-102 -75 -34 0 -75 -28 -91 -63 -17 -34 -51 -57 -90 -57 -28 -1 -60 -27 -81
-69 -9 -17 -29 -37 -44 -43 -97 -38 -123 -58 -169 -127 -1 -2 -23 -7 -49 -12
-52 -10 -86 -36 -104 -79 -7 -17 -24 -33 -43 -40 -53 -19 -117 -52 -117 -61 0
-20 -54 -69 -88 -79 -78 -24 -90 -32 -107 -71 -13 -27 -26 -41 -44 -45 -53
-11 -91 -37 -108 -75 -15 -32 -27 -42 -68 -58 -36 -13 -60 -31 -86 -65 -24
-32 -54 -56 -95 -75 -43 -21 -68 -41 -91 -75 -25 -35 -39 -46 -59 -46 -37 0
-82 -29 -93 -60 -12 -36 -38 -60 -65 -60 -32 0 -73 -34 -96 -80 -13 -25 -28
-40 -47 -45 -44 -11 -90 -43 -112 -79 -13 -20 -45 -46 -81 -65 -41 -22 -69
-46 -86 -72 -13 -22 -37 -44 -52 -49 -55 -19 -76 -36 -96 -75 -15 -28 -29 -41
-46 -44 -37 -5 -79 -39 -98 -79 -13 -29 -26 -40 -60 -51 -32 -10 -50 -24 -68
-52 -13 -21 -24 -43 -24 -47 0 -5 -22 -19 -50 -30 -39 -16 -56 -31 -81 -71
-19 -32 -38 -51 -49 -51 -24 0 -73 -42 -100 -85 -12 -19 -25 -35 -30 -35 -20
0 -108 -67 -132 -101 -16 -22 -45 -46 -72 -58 -36 -15 -50 -30 -67 -64 -16
-33 -30 -47 -58 -57 -48 -17 -68 -35 -81 -75 -9 -26 -21 -37 -61 -53 -41 -18
-52 -28 -68 -65 -15 -36 -27 -46 -63 -60 -36 -14 -50 -27 -69 -64 -17 -33 -33
-49 -54 -56 -40 -13 -64 -35 -80 -74 -10 -22 -28 -39 -62 -55 -36 -18 -52 -33
-68 -66 -14 -30 -29 -45 -51 -52 -35 -12 -64 -40 -86 -84 -9 -16 -34 -38 -58
-50 -29 -14 -50 -34 -64 -61 -24 -45 -44 -64 -67 -65 -20 0 -52 -37 -69 -79
-10 -24 -25 -38 -56 -51 -34 -15 -45 -27 -58 -62 -14 -34 -26 -48 -59 -63 -32
-16 -47 -32 -65 -68 -16 -33 -33 -52 -60 -66 -45 -23 -56 -35 -69 -76 -7 -21
-24 -38 -58 -56 -40 -21 -52 -34 -63 -68 -12 -36 -21 -46 -59 -62 -37 -16 -47
-27 -64 -67 -16 -39 -28 -52 -61 -67 -33 -14 -45 -27 -61 -65 -16 -37 -28 -51
-59 -65 -29 -12 -45 -29 -63 -65 -13 -27 -37 -58 -53 -69 -16 -11 -62 -63
-101 -116 -40 -52 -78 -95 -85 -95 -15 0 -56 -51 -73 -92 -7 -14 -28 -34 -48
-44 -25 -11 -43 -31 -60 -64 -26 -51 -40 -66 -70 -71 -12 -3 -30 -25 -46 -58
-19 -37 -37 -58 -57 -66 -34 -15 -68 -59 -73 -95 -3 -16 -15 -31 -36 -41 -50
-25 -62 -38 -75 -81 -8 -28 -24 -48 -54 -69 -26 -17 -51 -46 -64 -75 -13 -25
-52 -76 -87 -113 -36 -36 -74 -84 -84 -106 -12 -24 -32 -46 -52 -56 -31 -15
-41 -29 -69 -94 -7 -16 -25 -36 -40 -43 -38 -18 -68 -59 -68 -93 0 -21 -10
-36 -38 -59 -22 -17 -65 -71 -97 -120 -32 -50 -64 -90 -71 -90 -19 0 -53 -39
-74 -87 -10 -24 -25 -43 -33 -43 -26 0 -66 -48 -78 -93 -9 -38 -17 -47 -50
-62 -34 -16 -41 -25 -54 -69 -19 -62 -54 -113 -105 -154 -21 -18 -45 -50 -55
-74 -11 -28 -32 -54 -58 -73 -35 -26 -44 -40 -57 -89 -11 -42 -22 -62 -41 -73
-29 -17 -74 -83 -105 -150 -10 -24 -28 -45 -39 -49 -36 -11 -63 -45 -75 -95
-10 -40 -18 -51 -48 -67 -30 -15 -40 -29 -55 -71 -21 -63 -69 -136 -100 -152
-30 -17 -45 -37 -57 -82 -8 -26 -22 -45 -50 -63 -38 -25 -48 -45 -65 -117 -9
-41 -54 -108 -76 -114 -24 -7 -54 -55 -69 -111 -8 -30 -18 -46 -35 -52 -27
-10 -65 -64 -65 -93 0 -36 -51 -118 -86 -139 -41 -24 -50 -39 -59 -98 -6 -37
-14 -50 -46 -73 -22 -15 -44 -40 -50 -55 -34 -91 -63 -141 -87 -153 -40 -20
-62 -50 -62 -86 0 -49 -16 -80 -69 -136 -56 -61 -66 -78 -76 -132 -5 -31 -15
-46 -45 -67 -30 -21 -42 -39 -54 -79 -24 -79 -55 -137 -77 -144 -28 -9 -59
-63 -59 -104 0 -48 -39 -122 -71 -135 -35 -13 -59 -54 -66 -116 -4 -39 -13
-58 -42 -88 -64 -67 -80 -92 -91 -145 -9 -43 -18 -57 -50 -79 -39 -27 -43 -37
-79 -174 -8 -30 -21 -48 -46 -65 -28 -19 -39 -36 -51 -79 -33 -117 -48 -151
-76 -168 -29 -17 -58 -67 -58 -99 0 -50 -34 -119 -76 -156 -31 -27 -45 -48
-50 -75 -16 -95 -35 -140 -69 -167 -39 -29 -65 -72 -65 -107 0 -52 -23 -103
-66 -145 -49 -47 -64 -77 -64 -127 0 -51 -29 -123 -60 -149 -43 -36 -65 -92
-85 -213 -4 -29 -19 -54 -49 -87 -48 -50 -76 -118 -76 -181 0 -48 -29 -102
-64 -118 -31 -14 -56 -74 -56 -134 0 -58 -25 -111 -61 -130 -37 -19 -59 -62
-59 -117 0 -72 -23 -132 -68 -174 -29 -27 -42 -50 -47 -78 -4 -22 -11 -53 -16
-69 -5 -16 -9 -47 -9 -68 0 -47 -18 -83 -61 -123 -40 -36 -59 -81 -59 -137 -1
-79 -18 -130 -55 -161 -41 -33 -75 -130 -75 -212 0 -58 -28 -112 -68 -130 -28
-12 -52 -73 -52 -129 0 -79 -21 -148 -56 -186 -50 -54 -65 -95 -75 -196 -12
-129 -16 -143 -64 -196 -47 -52 -65 -105 -65 -190 -1 -87 -17 -139 -57 -179
-46 -46 -71 -122 -72 -212 -1 -76 -18 -125 -58 -167 -42 -45 -63 -112 -68
-216 -5 -118 -18 -165 -54 -201 -51 -51 -62 -86 -72 -222 -11 -154 -18 -180
-63 -233 -47 -54 -55 -86 -66 -246 -9 -139 -20 -172 -71 -217 -34 -32 -46 -74
-53 -200 -13 -223 -15 -234 -56 -279 -20 -23 -42 -57 -49 -76 -7 -19 -16 -113
-22 -209 -10 -184 -13 -195 -73 -289 -40 -61 -56 -138 -56 -263 -1 -121 -23
-236 -53 -268 -13 -14 -31 -43 -41 -63 -19 -42 -35 -190 -36 -328 0 -52 -4
-134 -10 -182 -7 -72 -13 -92 -33 -114 -48 -51 -68 -141 -78 -339 -14 -317
-16 -329 -70 -412 -40 -63 -49 -134 -59 -456 -11 -344 -26 -479 -59 -526 -12
-16 -31 -65 -42 -108 -19 -69 -22 -122 -30 -473 -10 -479 -22 -670 -45 -741
-9 -30 -20 -58 -24 -64 -9 -13 -28 -111 -41 -215 -16 -120 -24 -3073 -10
-3490 10 -304 30 -488 56 -530 38 -59 49 -202 64 -810 8 -319 12 -376 31 -450
11 -47 29 -97 40 -111 10 -14 23 -43 29 -65 15 -50 30 -313 31 -519 0 -225 27
-363 85 -439 22 -29 25 -48 35 -182 5 -82 10 -188 10 -236 0 -136 22 -215 76
-276 29 -33 33 -61 44 -317 12 -268 23 -323 78 -381 32 -34 42 -82 51 -260 9
-183 24 -239 77 -295 30 -32 54 -158 54 -289 0 -107 21 -190 64 -255 18 -27
36 -56 40 -62 4 -7 11 -75 16 -150 11 -176 24 -232 63 -284 53 -70 57 -82 66
-221 5 -73 13 -142 17 -153 4 -11 25 -42 46 -68 49 -59 54 -78 68 -242 11
-134 40 -228 74 -241 28 -11 44 -68 51 -179 7 -124 25 -186 60 -209 42 -27 54
-58 65 -161 17 -161 18 -164 64 -214 52 -55 52 -56 66 -196 11 -113 30 -164
71 -193 30 -21 46 -61 53 -134 17 -177 26 -210 67 -239 40 -28 55 -63 61 -139
8 -99 36 -178 75 -207 37 -28 49 -61 57 -155 8 -87 21 -122 52 -138 39 -21 60
-68 73 -160 16 -122 27 -155 64 -187 42 -37 67 -99 67 -166 0 -61 22 -109 74
-159 26 -26 36 -44 41 -83 13 -103 43 -182 79 -212 35 -28 52 -76 71 -198 5
-29 18 -50 46 -78 47 -44 69 -91 69 -147 0 -50 30 -111 63 -129 31 -16 54 -68
62 -140 8 -68 16 -84 72 -142 41 -43 46 -52 53 -115 10 -82 36 -138 84 -181
23 -19 36 -40 36 -55 0 -59 31 -129 81 -180 40 -41 49 -57 50 -87 1 -53 19
-94 64 -143 53 -58 64 -77 65 -116 0 -49 22 -92 74 -146 43 -44 49 -55 57
-113 10 -72 18 -87 68 -129 39 -33 61 -79 61 -129 0 -46 20 -84 59 -113 36
-26 71 -89 71 -127 0 -42 27 -94 59 -113 30 -17 81 -109 81 -146 0 -26 19 -58
55 -91 18 -17 45 -61 60 -99 19 -46 43 -82 71 -109 36 -34 43 -47 49 -95 5
-44 13 -62 37 -84 17 -15 34 -28 38 -28 13 0 60 -101 60 -127 0 -41 27 -91 58
-107 30 -16 57 -61 87 -146 15 -43 32 -64 70 -86 11 -6 24 -32 32 -60 16 -66
33 -94 54 -94 32 0 99 -117 99 -174 0 -16 27 -46 60 -67 16 -10 29 -33 37 -61
8 -31 25 -57 56 -85 54 -50 82 -96 92 -148 8 -49 28 -81 55 -90 12 -4 34 -34
54 -73 19 -37 55 -89 80 -117 26 -27 49 -61 52 -75 13 -62 32 -96 64 -118 20
-13 44 -44 58 -72 14 -30 36 -57 57 -70 36 -22 79 -89 95 -149 10 -37 40 -73
71 -84 9 -3 26 -33 38 -66 18 -50 28 -64 55 -75 24 -10 40 -29 67 -82 18 -37
55 -90 82 -117 26 -27 50 -61 53 -76 11 -52 34 -90 63 -106 19 -9 38 -32 50
-59 10 -24 33 -54 51 -67 32 -24 87 -100 123 -169 10 -19 35 -47 55 -61 28
-19 40 -37 50 -73 9 -37 20 -51 48 -68 22 -13 44 -39 60 -70 15 -30 38 -57 60
-70 19 -11 43 -37 53 -57 11 -20 39 -57 64 -83 59 -60 107 -127 107 -148 0
-20 41 -70 56 -70 17 0 39 -31 58 -82 13 -35 25 -50 52 -63 24 -11 41 -29 51
-53 18 -45 41 -72 70 -83 12 -4 38 -33 58 -64 19 -31 49 -64 65 -73 17 -9 30
-20 30 -24 0 -11 149 -188 159 -188 4 0 22 -26 39 -58 21 -40 43 -65 67 -78
19 -10 38 -28 41 -39 17 -56 37 -83 75 -100 31 -14 41 -26 49 -55 10 -37 37
-68 77 -89 12 -6 34 -33 48 -60 17 -31 38 -53 58 -62 20 -9 39 -29 51 -52 10
-22 40 -54 66 -73 26 -19 53 -48 60 -64 7 -16 24 -39 39 -50 14 -11 38 -29 53
-41 16 -11 28 -26 28 -33 0 -15 50 -64 81 -80 12 -6 27 -20 33 -31 6 -11 31
-40 56 -65 24 -25 108 -113 185 -196 169 -182 184 -198 278 -294 41 -41 77
-84 81 -96 3 -12 26 -31 49 -43 27 -14 52 -38 69 -66 15 -24 42 -52 60 -61 18
-9 44 -31 58 -48 14 -17 39 -43 55 -58 94 -86 185 -171 245 -228 37 -36 105
-100 151 -143 46 -43 93 -86 104 -97 11 -10 31 -33 44 -50 13 -18 37 -36 52
-42 16 -5 39 -29 57 -58 19 -30 44 -55 67 -66 20 -9 44 -29 53 -43 28 -46 65
-80 97 -91 18 -6 37 -21 42 -33 20 -42 63 -86 94 -92 22 -5 38 -20 60 -55 27
-44 47 -58 104 -74 11 -3 29 -25 40 -48 17 -36 28 -45 67 -58 37 -12 52 -23
68 -52 14 -26 43 -51 88 -78 37 -22 75 -53 85 -69 15 -26 99 -91 117 -91 4 0
21 -21 40 -46 21 -30 48 -52 76 -65 25 -10 47 -26 51 -36 15 -42 46 -73 84
-85 23 -6 48 -22 57 -35 45 -65 64 -81 108 -93 36 -10 51 -22 70 -52 18 -28
42 -47 90 -70 36 -17 70 -40 76 -52 17 -34 78 -84 109 -90 19 -3 36 -17 48
-38 29 -49 58 -74 101 -87 28 -8 47 -24 67 -53 21 -31 42 -47 80 -63 37 -14
61 -32 81 -61 21 -28 47 -48 91 -68 40 -18 66 -37 75 -54 20 -39 44 -58 101
-79 37 -14 57 -29 78 -60 21 -33 38 -45 70 -54 66 -18 87 -31 115 -71 29 -40
87 -78 120 -78 12 0 29 -12 39 -26 49 -70 64 -82 114 -94 41 -10 54 -19 74
-49 18 -29 40 -45 98 -70 49 -21 79 -41 88 -58 20 -37 65 -71 109 -83 29 -8
46 -22 67 -52 24 -36 38 -45 98 -64 38 -12 74 -29 80 -36 52 -70 90 -98 133
-98 32 0 82 -34 82 -55 0 -20 37 -43 98 -61 53 -16 112 -56 112 -77 0 -19 62
-56 106 -63 50 -8 53 -9 84 -57 14 -21 36 -40 50 -44 14 -3 30 -9 35 -13 6 -3
29 -12 52 -19 29 -8 47 -20 57 -39 25 -47 60 -72 115 -81 28 -4 53 -10 54 -12
2 -2 15 -20 30 -40 28 -37 99 -79 135 -79 35 0 66 -20 94 -61 17 -23 39 -41
55 -45 99 -22 135 -37 151 -62 34 -53 75 -82 118 -82 48 0 90 -18 102 -44 18
-40 75 -76 136 -86 68 -11 72 -13 91 -51 18 -34 74 -65 145 -80 41 -9 55 -18
73 -45 25 -38 55 -55 142 -80 48 -13 69 -27 105 -64 38 -41 52 -49 95 -55 95
-13 119 -23 143 -60 26 -40 61 -58 146 -74 52 -9 66 -17 107 -60 36 -38 57
-51 86 -56 59 -9 143 -35 143 -44 0 -19 76 -81 105 -86 64 -11 81 -14 98 -14
10 -1 37 -22 60 -47 51 -56 84 -74 136 -74 55 0 86 -14 123 -55 40 -47 70 -61
142 -70 82 -10 103 -19 150 -69 38 -40 47 -45 116 -55 96 -15 140 -31 154 -56
6 -10 20 -27 31 -36 23 -20 128 -49 176 -49 24 0 40 -10 73 -45 48 -52 76 -64
170 -75 64 -7 73 -11 107 -48 47 -52 80 -68 154 -77 104 -12 136 -24 179 -68
35 -36 50 -44 108 -55 37 -6 80 -12 96 -12 48 0 86 -19 104 -50 23 -40 85 -65
178 -73 97 -8 130 -21 155 -59 25 -39 72 -56 185 -68 83 -9 86 -10 125 -52 51
-55 74 -63 210 -77 l110 -11 37 -40 c48 -52 69 -59 210 -75 145 -17 149 -18
170 -55 24 -42 75 -61 188 -71 152 -13 168 -17 182 -47 22 -47 96 -74 221 -83
133 -10 138 -12 159 -49 25 -44 76 -60 240 -75 155 -14 165 -17 242 -78 39
-32 130 -51 299 -63 72 -5 92 -10 105 -26 50 -61 113 -88 206 -88 28 0 92 -5
141 -10 85 -10 92 -12 120 -45 45 -51 96 -65 285 -75 208 -11 220 -14 268 -60
46 -44 90 -56 252 -65 192 -11 252 -22 279 -51 43 -47 102 -65 244 -75 378
-28 349 -24 372 -51 12 -14 32 -31 45 -38 39 -21 170 -39 285 -40 258 -2 353
-19 411 -72 39 -35 118 -47 388 -58 297 -12 356 -20 406 -55 19 -13 51 -28 70
-31 19 -4 43 -11 54 -16 10 -6 177 -16 370 -24 412 -16 478 -23 515 -57 19
-17 51 -29 116 -42 98 -19 129 -20 868 -36 284 -6 511 -15 530 -21 187 -60
725 -91 1592 -91 834 0 1419 32 1555 85 35 14 314 25 800 33 406 6 600 16 670
37 19 6 55 23 80 39 41 25 57 29 190 38 80 5 244 13 365 16 265 8 331 17 410
54 112 54 143 59 432 70 307 12 370 23 426 76 40 38 69 42 372 55 110 5 215
13 234 19 19 6 64 28 100 50 l66 40 200 11 c221 12 290 26 334 69 43 42 80 51
256 61 232 14 265 23 330 85 21 19 47 35 59 35 12 1 95 5 186 10 194 10 252
26 281 75 23 38 40 42 225 54 132 9 196 30 233 77 22 28 70 39 206 49 142 9
180 21 231 70 47 46 49 47 254 61 108 7 151 23 196 70 37 38 76 50 201 59 105
7 140 21 181 71 28 33 33 35 123 45 167 18 192 25 243 74 36 34 57 45 89 49
207 25 228 29 268 58 21 15 39 32 39 37 0 16 81 38 175 49 106 12 136 24 159
63 24 40 44 48 143 58 109 10 161 31 191 76 25 35 36 40 132 50 115 12 146 24
188 70 33 37 47 44 88 50 122 15 168 26 200 45 19 12 34 26 34 30 0 27 46 49
128 60 122 16 148 26 183 70 35 44 72 60 136 60 58 0 102 19 139 63 42 47 59
55 137 63 73 7 137 38 152 72 11 25 61 52 97 52 12 0 50 7 82 14 49 12 67 22
102 60 23 25 44 46 47 46 2 0 43 7 91 15 98 17 129 33 146 75 14 34 15 35 113
50 87 14 129 36 149 77 12 25 24 31 108 51 94 22 115 35 145 86 6 11 44 26 95
40 106 28 123 37 148 80 16 28 28 35 64 41 90 14 146 35 171 65 14 16 27 34
29 41 2 6 37 17 77 25 95 18 141 40 153 75 10 29 37 43 103 54 57 10 112 41
129 74 17 31 48 46 116 56 38 6 53 16 95 61 49 53 90 74 144 74 28 0 91 45 91
64 0 21 33 44 75 52 70 12 121 40 144 77 22 35 39 47 69 47 58 0 162 61 162
94 0 17 37 33 96 42 59 8 75 18 113 71 25 34 40 44 100 62 63 19 73 26 93 61
23 40 30 44 119 64 27 6 79 48 79 65 0 16 45 46 91 60 77 23 88 30 114 70 16
26 35 43 53 47 66 14 94 28 120 56 15 16 37 40 49 53 15 17 37 26 74 31 56 8
81 26 110 81 14 25 25 32 64 37 40 7 56 17 111 71 47 46 73 65 101 70 55 10
71 21 93 65 14 27 29 42 48 46 64 14 79 23 115 71 33 44 48 55 104 74 54 20
68 30 86 61 17 30 31 41 62 48 68 18 85 29 113 73 21 35 37 48 77 61 36 13 65
34 106 77 43 46 62 59 85 59 42 1 73 21 98 66 14 25 32 42 51 48 58 17 76 30
105 78 18 29 37 48 48 48 26 0 100 55 113 84 10 21 78 62 131 80 15 4 52 52
61 79 1 4 24 13 52 20 39 9 54 19 71 47 35 56 62 80 88 80 16 0 36 14 60 42
20 23 36 45 36 49 0 4 23 19 51 33 70 36 85 48 111 86 16 24 40 41 78 55 44
17 59 29 77 60 16 30 33 44 65 56 32 12 52 29 76 65 25 36 44 53 74 63 26 9
46 24 57 43 28 52 52 78 71 78 26 0 75 44 90 79 8 20 27 38 56 51 24 12 57 38
74 58 49 59 57 66 97 87 49 26 69 44 77 72 5 15 29 33 71 53 49 23 68 39 83
68 14 27 30 41 62 53 44 16 62 33 91 87 11 19 28 32 48 37 29 6 57 35 87 89
11 20 20 26 66 45 17 6 36 28 52 60 20 38 32 51 55 56 31 7 63 39 93 94 10 18
25 31 36 31 24 0 72 46 84 83 7 19 25 35 57 50 35 17 52 33 71 69 18 34 33 49
52 53 29 7 74 53 89 92 5 13 17 26 26 29 45 15 66 31 90 71 15 25 41 52 66 65
26 15 51 39 65 66 15 27 38 50 63 62 28 15 46 35 64 70 17 34 33 52 50 56 29
7 72 55 81 90 5 18 15 27 36 31 30 6 88 71 88 99 0 8 20 23 44 35 33 15 50 32
68 67 16 32 36 52 63 67 28 14 46 33 61 63 15 33 31 48 62 62 34 15 46 29 62
65 11 25 27 48 37 52 40 14 75 47 90 84 10 26 27 45 47 56 47 24 64 42 72 77
8 40 22 56 62 73 24 10 38 27 56 67 15 35 35 60 55 72 17 10 31 21 31 25 0 9
98 136 126 163 12 12 33 32 48 45 14 13 33 39 42 58 11 21 31 41 53 51 25 12
42 31 58 64 16 35 33 53 60 65 26 13 44 32 60 65 13 27 36 54 51 62 36 19 57
44 71 86 8 24 25 43 55 61 35 22 47 36 60 75 11 33 36 70 75 111 33 34 71 84
86 110 16 29 40 54 59 63 20 10 39 31 52 60 13 27 39 57 65 75 40 29 50 45 63
105 3 17 18 32 41 43 27 13 42 31 65 80 19 41 54 88 93 128 34 35 69 79 76 97
9 21 28 40 51 52 30 15 41 30 56 70 14 40 26 55 52 67 36 17 56 48 66 104 5
26 23 54 63 95 31 33 68 81 83 108 14 29 38 57 55 66 31 17 65 71 65 105 0 26
8 36 46 63 20 14 48 53 74 104 30 60 53 91 83 113 30 22 45 42 55 76 11 35 22
49 51 65 29 15 39 29 53 72 22 68 67 140 93 149 27 8 41 29 60 85 12 33 26 53
49 68 34 21 49 48 62 110 8 43 35 82 90 135 31 29 46 53 55 88 8 34 18 51 34
57 28 10 65 57 65 80 0 10 11 43 25 73 18 41 35 63 64 81 39 25 61 65 61 112
0 13 6 28 13 33 6 6 25 21 40 33 15 13 45 61 67 108 29 61 46 88 65 96 36 15
53 43 63 107 10 61 43 119 80 139 29 15 47 50 56 108 6 36 16 53 51 85 34 32
49 55 68 113 20 58 31 78 55 93 34 20 62 66 62 101 0 40 47 127 74 138 32 12
56 48 62 96 10 76 15 86 69 139 52 52 75 99 75 152 0 12 7 28 16 35 64 52 96
111 110 206 4 23 9 42 13 42 34 0 111 136 111 196 0 19 13 39 40 66 31 29 47
56 67 115 40 121 45 133 54 133 4 0 19 10 33 23 18 17 32 50 49 116 21 81 28
95 55 111 39 24 45 35 73 149 21 83 28 96 57 115 26 17 37 35 57 99 14 43 25
94 25 113 0 28 10 45 49 87 56 59 71 90 71 148 0 51 23 106 58 135 15 13 30
24 33 24 13 0 29 56 38 130 9 72 11 77 55 115 50 44 66 77 66 135 0 55 15 87
65 141 30 32 46 59 50 85 3 22 10 58 16 81 5 23 9 55 9 72 0 22 13 45 46 82
57 64 74 103 74 167 0 68 16 108 61 150 33 32 41 48 54 112 8 41 15 89 15 107
0 17 4 43 10 57 12 31 50 76 65 76 20 0 36 51 46 143 10 98 17 116 55 146 15
12 33 32 40 45 17 34 34 119 34 172 0 56 22 110 55 136 47 36 57 71 74 236 10
94 29 142 55 142 26 0 55 81 66 185 18 165 17 161 60 195 21 17 43 45 49 63 8
28 31 211 31 254 0 8 17 32 38 52 57 55 68 90 81 247 12 158 22 196 54 213 45
25 77 136 77 265 0 93 15 145 50 176 44 38 58 86 70 236 6 77 14 148 17 159 3
11 22 39 43 62 51 58 60 95 70 283 12 203 14 215 56 257 49 48 63 105 73 300
9 174 15 198 56 243 47 51 67 139 76 345 8 205 10 215 45 258 47 56 65 146 74
362 12 281 17 313 49 355 63 83 69 117 81 429 6 152 13 286 15 299 3 13 21 55
39 95 51 107 63 190 71 462 3 132 11 296 16 364 8 109 12 130 35 164 60 91 70
202 84 934 9 481 12 553 30 640 35 170 39 194 50 343 65 906 32 2636 -52 2766
-15 22 -19 129 -33 739 -16 678 -22 755 -71 806 -34 36 -42 96 -54 439 -15
426 -24 493 -78 575 -37 55 -40 79 -52 405 -11 275 -21 329 -77 417 l-36 57
-9 165 c-20 380 -28 425 -89 490 -21 22 -24 39 -31 150 -22 350 -32 403 -83
442 -34 27 -44 70 -56 249 -5 85 -14 175 -20 200 -14 60 -38 110 -54 110 -30
0 -54 123 -55 273 0 132 -23 220 -71 272 -37 40 -40 49 -49 126 -6 46 -10 107
-10 134 0 75 -17 122 -61 170 -42 46 -59 102 -59 200 0 68 -24 195 -44 234 -9
16 -25 36 -37 44 -29 21 -46 88 -54 213 -7 122 -25 175 -76 225 -36 35 -47 79
-48 187 -1 77 -20 125 -71 177 -35 35 -41 49 -49 110 -6 39 -11 91 -11 116 0
60 -19 104 -68 155 -37 39 -39 45 -51 145 -19 166 -18 164 -67 215 -24 26 -46
57 -49 68 -12 62 -25 157 -25 192 -1 47 -14 71 -62 113 -40 35 -58 80 -58 144
0 71 -31 157 -66 184 -38 28 -51 60 -59 146 -8 89 -24 133 -52 148 -36 19 -62
69 -69 135 -7 66 -28 153 -42 181 -6 10 -24 30 -41 45 -32 29 -45 67 -56 163
-8 66 -29 112 -57 121 -32 10 -57 53 -63 112 -11 99 -16 111 -67 167 -45 49
-51 62 -58 117 -14 102 -29 140 -73 182 -37 35 -42 46 -63 145 -20 95 -26 109
-57 136 -44 39 -63 77 -71 145 -10 75 -22 103 -57 129 -37 28 -69 90 -69 136
0 53 -23 99 -63 124 -40 24 -55 56 -66 134 -8 62 -31 103 -66 119 -27 12 -65
94 -65 140 0 42 -29 98 -57 111 -30 13 -60 71 -69 129 -9 67 -22 93 -64 127
-40 32 -54 63 -65 146 -6 42 -14 57 -51 93 -33 31 -51 59 -66 105 -31 93 -46
122 -78 140 -18 11 -31 29 -35 50 -11 51 -43 106 -91 157 -32 35 -45 57 -50
91 -9 58 -30 97 -59 111 -28 12 -75 95 -75 131 0 14 -4 37 -10 51 -9 25 -66
86 -80 86 -9 0 -50 110 -50 134 0 16 -64 86 -80 86 -4 0 -11 17 -15 37 -10 56
-32 92 -87 150 -43 43 -52 60 -59 104 -8 51 -47 109 -74 109 -7 0 -28 35 -48
79 -20 43 -48 89 -63 102 -14 13 -35 32 -45 42 -10 9 -19 28 -19 42 0 44 -28
94 -63 115 -23 13 -41 37 -57 72 -13 29 -31 71 -41 93 -10 22 -32 48 -49 58
-17 10 -32 30 -36 45 -16 72 -28 95 -59 113 -43 26 -64 58 -90 139 -18 53 -29
70 -60 91 -29 20 -42 38 -52 73 -11 36 -22 52 -53 71 -37 24 -54 48 -95 134
-9 19 -38 55 -64 80 -37 35 -49 56 -54 88 -5 29 -16 49 -38 67 -17 14 -34 26
-38 26 -4 0 -20 27 -36 61 -17 37 -36 64 -50 69 -32 12 -84 87 -101 148 -13
43 -23 58 -50 74 -25 15 -43 38 -63 83 -22 49 -35 64 -59 73 -17 6 -33 20 -38
34 -10 32 -109 165 -133 177 -11 6 -27 34 -36 62 -13 38 -27 58 -58 80 -25 18
-46 43 -53 65 -14 42 -41 73 -71 85 -12 4 -32 28 -44 51 -11 24 -42 64 -67 89
-56 55 -65 66 -87 110 -26 49 -52 80 -85 100 -20 12 -33 32 -40 60 -11 39 -45
83 -81 105 -8 5 -25 30 -38 56 -15 32 -33 51 -57 63 -21 10 -39 29 -48 49 -15
37 -53 79 -78 89 -9 3 -29 24 -43 47 -14 22 -55 70 -90 107 -36 37 -79 89 -95
117 -17 28 -47 61 -65 73 -22 15 -42 41 -56 73 -17 39 -29 53 -60 67 -32 14
-41 25 -55 65 -12 38 -24 53 -57 72 -26 16 -48 40 -61 68 -14 28 -33 49 -56
60 -22 12 -43 34 -57 63 -14 27 -39 55 -62 69 -21 14 -50 44 -62 67 -15 26
-39 50 -63 62 -23 12 -43 32 -51 51 -14 34 -52 72 -87 90 -12 6 -28 22 -34 34
-16 32 -64 81 -86 88 -10 3 -24 17 -31 31 -12 22 -105 123 -292 317 -27 28
-61 65 -75 81 -14 17 -37 39 -50 50 -14 11 -37 37 -51 57 -14 21 -44 51 -67
68 -24 17 -50 46 -59 65 -10 21 -32 42 -57 56 -23 12 -56 41 -74 65 -18 25
-50 55 -72 69 -21 13 -50 40 -65 59 -14 19 -51 54 -81 77 -30 23 -62 54 -70
68 -9 14 -42 46 -75 69 -32 24 -59 47 -59 51 0 13 -83 91 -97 91 -7 0 -17 9
-23 21 -19 34 -81 99 -96 99 -7 0 -34 27 -59 60 -27 35 -57 63 -72 66 -16 4
-37 26 -58 59 -25 38 -45 57 -73 68 -28 11 -47 29 -65 60 -24 40 -74 77 -106
77 -6 0 -18 15 -27 33 -25 49 -54 76 -94 87 -29 8 -41 18 -55 49 -17 38 -44
58 -103 76 -12 3 -31 24 -42 45 -15 29 -33 45 -75 65 -37 17 -63 38 -75 58
-11 18 -48 51 -83 74 -35 23 -76 60 -91 82 -17 24 -43 46 -67 55 -25 10 -46
28 -57 48 -22 41 -55 70 -94 83 -19 6 -44 28 -63 55 -30 43 -45 54 -110 82
-16 7 -34 23 -40 34 -19 39 -37 54 -78 65 -29 8 -58 29 -103 75 -41 42 -74 67
-94 71 -17 3 -39 17 -48 30 -42 60 -74 91 -102 96 -33 7 -57 29 -82 75 -13 24
-28 34 -72 47 -46 14 -58 22 -72 50 -12 26 -32 42 -81 66 -44 21 -74 44 -92
70 -25 37 -53 55 -119 80 -22 8 -40 25 -53 50 -21 42 -53 62 -111 73 -29 5
-44 16 -65 48 -22 32 -43 48 -93 69 -50 21 -72 37 -98 72 -31 43 -56 59 -114
71 -18 4 -37 21 -53 47 -14 22 -36 44 -48 48 -12 5 -43 16 -68 25 -34 12 -54
28 -73 57 -25 37 -46 51 -123 79 -20 8 -38 24 -48 46 -20 43 -46 60 -112 74
-36 8 -54 17 -58 30 -10 31 -72 78 -117 90 -61 17 -70 22 -100 66 -28 42 -65
63 -111 64 -21 0 -44 15 -88 58 -47 47 -70 62 -116 75 -49 14 -62 22 -83 56
-21 36 -33 43 -95 62 -72 21 -105 42 -105 65 0 22 -63 61 -115 72 -32 7 -55
18 -65 32 -35 51 -60 68 -128 89 -63 19 -75 27 -97 61 -30 47 -49 58 -122 70
-50 8 -62 15 -108 63 -54 58 -62 61 -138 72 -42 6 -51 11 -69 41 -23 40 -76
70 -140 80 -30 5 -51 17 -71 38 -61 68 -71 76 -97 76 -47 0 -103 30 -150 80
-34 37 -54 50 -85 55 -79 12 -87 16 -127 60 -41 45 -99 75 -146 75 -49 0 -71
12 -93 46 -27 44 -77 69 -153 79 -53 6 -64 12 -100 50 -47 49 -92 75 -133 75
-52 0 -99 19 -111 45 -19 40 -83 75 -160 87 -66 10 -71 12 -99 52 -23 33 -41
46 -82 59 -30 9 -64 17 -76 17 -40 0 -73 18 -87 47 -18 38 -83 69 -165 78 -63
7 -69 10 -112 54 -50 51 -82 66 -175 76 -52 6 -65 12 -100 47 -48 48 -107 77
-155 78 -59 0 -110 21 -136 56 -34 45 -49 52 -152 69 -118 21 -117 20 -136 60
-13 28 -26 37 -68 49 -29 9 -64 16 -78 16 -56 0 -107 22 -147 64 -44 45 -97
66 -171 66 -60 0 -125 28 -163 69 -37 40 -66 49 -219 67 -35 4 -59 13 -70 26
-9 11 -23 28 -32 39 -24 28 -75 46 -154 54 -102 10 -139 23 -159 56 -25 42
-62 57 -166 69 -101 11 -122 19 -162 61 -43 45 -75 55 -208 69 l-125 14 -39
39 c-21 22 -53 45 -71 53 -26 11 -198 34 -252 34 -8 0 -32 18 -53 40 -51 53
-73 60 -220 76 l-125 13 -35 40 c-46 51 -99 68 -235 76 -119 7 -166 21 -196
59 -29 37 -87 54 -226 66 -161 14 -184 20 -227 63 -45 45 -81 56 -231 67 -164
13 -184 18 -218 57 -38 43 -98 60 -252 68 -154 8 -209 20 -248 55 -62 54 -88
60 -265 71 -216 12 -242 18 -291 62 -53 48 -88 56 -285 68 -182 10 -241 20
-250 44 -3 8 -30 26 -61 40 -62 29 -185 44 -350 45 -55 0 -140 5 -190 11 -82
10 -93 14 -125 44 -44 43 -130 65 -255 65 -233 1 -426 26 -455 60 -8 10 -72
37 -115 50 -23 6 -171 15 -345 20 -377 12 -467 20 -513 49 -104 64 -215 78
-672 86 -459 7 -617 18 -681 46 -27 12 -71 26 -99 31 -223 41 -154 40 -1875
43 -905 1 -1744 -1 -1865 -5z m-8575 -13424 c58 -8 182 -22 275 -31 162 -16
325 -50 386 -80 14 -8 59 -21 100 -30 183 -42 236 -58 272 -81 47 -31 74 -42
160 -64 37 -10 98 -37 135 -59 37 -22 96 -52 132 -67 35 -14 91 -45 124 -68
34 -24 82 -53 108 -65 25 -12 66 -39 90 -60 23 -21 66 -50 94 -64 27 -14 56
-33 64 -42 8 -9 48 -44 89 -78 42 -33 78 -64 79 -69 2 -5 27 -27 56 -51 72
-58 266 -266 339 -362 33 -44 69 -88 79 -98 10 -10 30 -41 44 -70 15 -29 41
-68 59 -88 18 -20 47 -67 66 -105 18 -38 48 -90 66 -115 18 -25 46 -84 63
-130 17 -46 46 -106 63 -134 32 -50 67 -136 67 -166 0 -25 37 -135 63 -187 27
-54 50 -144 72 -292 17 -109 54 -300 61 -311 4 -7 30 -244 39 -364 4 -44 1
-155 -5 -247 -10 -161 -21 -240 -55 -413 -9 -44 -29 -152 -44 -240 -20 -114
-37 -179 -59 -225 -47 -101 -58 -132 -66 -175 -12 -67 -38 -138 -66 -175 -29
-40 -43 -70 -72 -155 -11 -33 -34 -77 -50 -98 -17 -22 -46 -69 -65 -105 -19
-37 -56 -96 -83 -132 -26 -36 -55 -79 -64 -97 -9 -18 -28 -45 -42 -60 -15 -15
-44 -54 -66 -86 -53 -78 -408 -432 -481 -481 -32 -21 -74 -53 -93 -72 -19 -19
-54 -43 -78 -54 -25 -10 -62 -34 -83 -53 -45 -41 -108 -81 -143 -92 -14 -4
-47 -24 -75 -45 -27 -21 -89 -54 -138 -74 -48 -19 -103 -47 -122 -62 -19 -14
-83 -42 -141 -60 -59 -19 -112 -38 -118 -43 -6 -5 -34 -18 -61 -29 -28 -10
-59 -23 -70 -27 -11 -5 -74 -21 -140 -36 -66 -14 -151 -36 -190 -48 -148 -46
-214 -60 -335 -71 -69 -6 -192 -18 -275 -27 -219 -24 -741 -24 -975 0 -326 34
-416 47 -491 70 -154 50 -217 67 -299 83 -47 9 -89 20 -95 24 -5 4 -28 13 -50
20 -22 7 -58 23 -80 35 -22 13 -79 35 -126 49 -47 14 -105 40 -129 57 -23 17
-81 47 -128 66 -47 18 -101 47 -119 64 -19 16 -62 42 -97 58 -58 26 -94 51
-135 92 -9 9 -40 30 -70 45 -29 16 -68 44 -86 61 -19 18 -50 44 -69 57 -37 25
-151 123 -216 186 -81 78 -267 288 -290 325 -13 22 -39 60 -59 84 -41 51 -81
109 -81 117 0 3 -20 31 -44 62 -45 60 -76 113 -76 133 0 6 -17 37 -38 68 -48
71 -70 113 -88 174 -8 26 -36 86 -61 134 -27 51 -51 114 -60 157 -8 39 -21 87
-28 106 -78 211 -98 288 -111 435 -3 39 -15 122 -25 185 -47 285 -47 640 0
921 10 63 22 148 26 189 9 106 30 222 43 247 7 12 12 29 12 38 0 9 13 47 29
83 16 37 36 101 46 142 16 74 67 200 93 232 7 9 22 44 32 77 23 73 40 107 91
182 22 31 39 63 39 70 0 16 33 72 58 99 9 10 35 49 57 86 22 36 56 85 76 108
20 22 49 61 65 86 104 164 473 510 696 652 24 16 66 46 93 68 28 22 69 46 93
54 23 8 61 30 83 49 22 19 77 49 122 67 45 18 102 47 127 65 37 27 161 75 192
75 4 0 52 21 105 46 61 29 132 53 188 64 50 10 113 26 140 35 53 19 111 35
221 65 40 10 166 28 280 40 115 11 220 23 234 27 100 25 738 24 920 -1z
m19555 -9101 c160 -6 326 -21 475 -45 271 -42 343 -52 480 -66 85 -8 180 -21
210 -29 125 -30 209 -53 219 -59 12 -8 71 -19 213 -41 65 -9 141 -31 226 -64
71 -27 153 -52 183 -56 71 -9 191 -49 254 -85 28 -15 93 -38 145 -50 52 -12
100 -25 105 -30 32 -25 150 -81 201 -94 69 -18 112 -38 169 -77 22 -15 70 -37
107 -49 37 -12 101 -44 142 -71 41 -27 80 -49 86 -49 22 0 85 -33 149 -78 35
-25 86 -53 114 -64 27 -10 70 -36 96 -58 25 -21 69 -50 97 -64 28 -14 78 -46
110 -72 32 -25 73 -51 89 -58 17 -7 52 -32 79 -55 27 -24 68 -54 90 -69 23
-14 70 -51 105 -84 35 -32 68 -58 73 -58 6 0 39 -27 75 -60 36 -33 70 -60 75
-60 26 0 525 -487 631 -615 265 -323 293 -359 389 -485 39 -52 78 -101 85
-109 8 -7 24 -34 38 -60 13 -25 43 -71 67 -103 25 -31 57 -80 72 -110 15 -29
42 -71 61 -93 19 -22 40 -56 47 -75 6 -19 35 -70 65 -112 29 -42 62 -102 73
-133 11 -31 32 -73 48 -93 33 -41 76 -124 85 -162 4 -14 22 -50 42 -80 40 -60
57 -96 86 -182 10 -31 29 -72 41 -90 32 -47 63 -120 87 -203 11 -38 37 -99 59
-135 24 -42 44 -94 56 -145 9 -44 30 -107 45 -140 62 -130 70 -153 86 -235 15
-80 43 -164 85 -255 11 -22 28 -89 39 -150 23 -121 35 -167 81 -300 17 -50 38
-138 46 -200 16 -125 29 -184 72 -340 27 -97 47 -216 67 -410 3 -33 12 -96 20
-140 71 -398 86 -526 105 -890 5 -104 14 -269 20 -365 6 -96 16 -272 22 -390
16 -298 24 -11787 8 -11843 -8 -28 -20 -42 -50 -57 -39 -20 -55 -20 -3250 -20
-2958 0 -3214 1 -3246 16 -19 9 -39 25 -44 34 -6 11 -11 2057 -13 5472 -4
5868 -1 5499 -51 5993 -9 83 -20 213 -26 290 -13 176 -34 313 -67 435 -35 131
-41 161 -59 270 -19 121 -48 228 -79 295 -14 29 -32 83 -41 121 -26 114 -54
196 -83 244 -27 45 -71 163 -71 192 0 9 -16 39 -35 67 -32 46 -48 77 -100 198
-10 23 -27 50 -37 60 -11 10 -35 48 -54 85 -18 37 -53 91 -77 120 -24 29 -55
72 -69 96 -79 134 -394 467 -503 532 -22 13 -57 41 -79 61 -21 20 -62 49 -91
64 -29 15 -77 47 -106 71 -31 26 -75 50 -105 59 -28 8 -62 23 -75 33 -49 38
-136 80 -199 96 -36 9 -108 36 -160 60 -90 42 -122 51 -280 77 -36 5 -94 19
-130 29 -206 59 -403 79 -768 80 -361 0 -562 -21 -757 -79 -33 -10 -121 -29
-195 -41 -95 -16 -151 -31 -190 -51 -65 -33 -138 -60 -236 -88 -40 -12 -95
-36 -122 -55 -28 -18 -81 -45 -119 -60 -38 -14 -99 -49 -137 -76 -38 -28 -76
-50 -86 -50 -9 0 -35 -14 -56 -30 -21 -17 -73 -53 -114 -81 -41 -28 -91 -65
-110 -83 -20 -18 -60 -50 -90 -71 -29 -21 -65 -50 -79 -64 -14 -15 -44 -41
-66 -59 -110 -85 -355 -356 -473 -521 -18 -25 -38 -53 -45 -61 -88 -110 -117
-149 -117 -158 0 -5 -20 -37 -45 -71 -24 -33 -59 -91 -77 -128 -18 -37 -49
-90 -69 -118 -20 -27 -46 -79 -58 -114 -22 -61 -75 -161 -91 -171 -4 -3 -17
-39 -29 -80 -31 -105 -41 -130 -68 -171 -27 -41 -58 -146 -68 -233 -4 -32 -20
-111 -35 -175 -34 -140 -47 -209 -68 -366 -14 -108 -16 -692 -21 -5982 l-6
-5863 -25 -25 -26 -25 -3248 0 c-2186 0 -3254 4 -3267 10 -10 6 -26 24 -34 41
-17 31 -14 1689 15 8629 19 4507 11 9102 -19 10680 -9 487 -9 494 39 520 21
11 6493 16 6523 5 8 -4 22 -21 31 -38 16 -29 17 -137 19 -1323 2 -1265 2
-1292 21 -1313 31 -35 65 -24 97 30 15 25 30 57 34 70 4 13 24 47 44 74 20 28
44 66 54 85 10 19 39 60 65 91 26 31 54 67 62 79 8 13 33 45 55 73 22 27 54
69 71 93 17 25 45 59 61 78 17 18 48 57 68 87 21 30 41 56 44 59 4 3 31 34 61
69 111 131 159 181 410 432 141 140 289 282 330 315 41 32 87 71 103 87 15 15
47 39 70 53 23 15 58 41 77 59 19 18 55 45 80 60 25 15 63 44 85 64 22 20 67
52 100 71 33 18 76 48 97 66 20 18 58 42 84 53 26 12 71 39 98 60 55 42 124
81 142 81 7 0 38 19 71 43 32 24 94 58 138 76 43 17 93 42 109 55 43 32 80 50
161 77 39 12 92 38 118 56 45 30 159 73 195 73 8 0 61 23 117 50 65 32 135 58
192 70 85 19 197 56 252 85 25 12 82 25 256 56 33 6 92 21 130 34 133 43 241
65 425 85 102 12 203 25 225 30 344 75 917 101 1670 75z m-16815 -490 c16 -8
37 -26 45 -39 13 -20 15 -1091 15 -9891 0 -8515 -2 -9872 -14 -9890 -8 -12
-30 -30 -50 -39 -32 -15 -270 -16 -3237 -16 -3122 0 -3203 1 -3244 19 -24 11
-48 28 -54 39 -14 27 -16 19744 -1 19771 12 24 49 48 89 58 17 4 1469 7 3226
6 2855 -2 3198 -4 3225 -18z"/>
</g>
</svg>
