<?xml version="1.0" standalone="no"?>
<!DOCTYPE svg PUBLIC "-//W3C//DTD SVG 20010904//EN"
 "http://www.w3.org/TR/2001/REC-SVG-20010904/DTD/svg10.dtd">
<svg version="1.0" xmlns="http://www.w3.org/2000/svg"
 width="1080.000000pt" height="1080.000000pt" viewBox="0 0 1080.000000 1080.000000"
 preserveAspectRatio="xMidYMid meet">

<g transform="translate(0.000000,1080.000000) scale(0.100000,-0.100000)"
fill="#000000" stroke="none">
<path d="M0 4547 l0 -434 57 -12 c109 -21 435 -41 661 -41 453 0 943 52 1597
168 421 75 561 86 1070 86 381 0 470 -3 660 -22 418 -42 781 -94 1165 -167
290 -55 420 -79 525 -100 640 -127 1243 -171 2034 -147 223 7 489 17 591 23
308 17 925 14 1160 -5 404 -33 912 -106 1258 -181 l22 -5 0 455 c0 250 -1 455
-3 455 -2 0 -53 7 -113 15 -178 26 -546 36 -864 25 -157 -6 -292 -12 -300 -15
-8 -2 -116 -14 -240 -25 -201 -19 -332 -36 -935 -125 -405 -60 -920 -79 -1360
-51 -575 37 -914 80 -1795 231 -392 67 -686 107 -905 125 -444 35 -973 39
-1640 14 -513 -19 -1087 -21 -1335 -5 -371 24 -1152 125 -1292 167 -17 5 -18
-20 -18 -429z"/>
</g>
</svg>
