<?xml version="1.0" standalone="no"?>
<!DOCTYPE svg PUBLIC "-//W3C//DTD SVG 20010904//EN"
 "http://www.w3.org/TR/2001/REC-SVG-20010904/DTD/svg10.dtd">
<svg version="1.0" xmlns="http://www.w3.org/2000/svg"
 width="2400.000000pt" height="1686.000000pt" viewBox="0 0 2400.000000 1686.000000"
 preserveAspectRatio="xMidYMid meet">

<g transform="translate(0.000000,1686.000000) scale(0.100000,-0.100000)"
fill="#cd201f" stroke="none">
<path d="M10785 16853 c-3417 -19 -6791 -149 -7765 -299 -652 -101 -1231 -384
-1724 -845 -493 -460 -813 -1176 -985 -2205 -53 -317 -83 -553 -150 -1184
-135 -1266 -189 -3185 -141 -4985 25 -948 82 -2195 121 -2645 96 -1136 176
-1585 394 -2235 168 -502 373 -881 629 -1164 276 -306 658 -563 1091 -734 824
-326 2068 -420 6860 -517 4090 -83 7326 -23 10745 200 862 57 1181 81 1283
101 488 92 977 321 1382 648 113 91 321 298 408 406 176 219 325 489 464 840
301 763 412 1430 543 3265 17 234 36 589 42 790 15 492 15 3799 0 4285 -17
520 -74 1419 -123 1905 -106 1071 -327 1910 -683 2596 -161 308 -237 417 -430
609 -447 445 -1074 761 -1716 864 -1209 196 -5707 329 -10245 304z m108 -5489
c2477 -1296 2997 -1568 3952 -2074 890 -472 1128 -599 1137 -608 8 -8 -92 -65
-567 -320 -600 -321 -1126 -593 -2610 -1347 -1605 -816 -2343 -1199 -3175
-1649 -47 -25 -88 -46 -92 -46 -5 0 -8 1519 -8 3376 0 3036 2 3376 15 3370 9
-3 615 -319 1348 -702z"/>
</g>
</svg>
